<?xml version="1.0" standalone="no"?>
<!DOCTYPE svg PUBLIC "-//W3C//DTD SVG 20010904//EN"
 "http://www.w3.org/TR/2001/REC-SVG-20010904/DTD/svg10.dtd">
<svg version="1.0" xmlns="http://www.w3.org/2000/svg"
 width="106.000000pt" height="106.000000pt" viewBox="0 0 106.000000 106.000000"
 preserveAspectRatio="xMidYMid meet">
<metadata>
Created by potrace 1.11, written by Peter Selinger 2001-2013
</metadata>
<g transform="translate(0.000000,106.000000) scale(0.100000,-0.100000)"
fill="#000000" stroke="none">
<path d="M223 915 c-259 -72 -298 -358 -81 -585 70 -73 211 -159 288 -175 8
-2 35 -8 60 -14 48 -11 157 -15 147 -5 -3 3 -23 8 -44 11 -190 23 -386 172
-445 341 -83 235 107 412 382 356 78 -16 127 -36 200 -84 85 -54 89 -55 33 -3
-111 104 -251 164 -398 169 -59 3 -108 -1 -142 -11z"/>
<path d="M298 623 c-4 -7 -3 -168 1 -200 0 -7 9 -13 19 -13 17 0 18 11 19 110
1 100 -1 110 -18 110 -10 0 -19 -3 -21 -7z"/>
<path d="M370 521 c0 -103 1 -111 19 -111 18 0 19 6 16 82 l-3 82 45 -82 c35
-64 49 -82 67 -82 21 0 22 3 21 110 0 98 -2 110 -17 110 -21 0 -21 -1 -19 -95
l1 -70 -43 80 c-31 58 -49 81 -65 83 -22 3 -22 1 -22 -107z"/>
<path d="M550 612 c0 -15 6 -18 30 -14 l30 4 0 -96 c0 -89 1 -96 20 -96 19 0
20 7 20 95 0 71 3 95 13 94 33 -4 57 2 57 16 0 12 -16 15 -85 15 -76 0 -85 -2
-85 -18z"/>
<path d="M730 520 l0 -110 70 0 c56 0 70 3 70 15 0 11 -12 15 -50 15 l-50 0 0
36 c0 31 3 35 23 34 42 -4 57 0 57 15 0 11 -11 15 -40 15 -38 0 -40 2 -40 31
0 27 3 30 28 29 52 -4 69 0 69 15 0 12 -15 15 -69 15 l-68 0 0 -110z"/>
<path d="M890 520 c0 -105 1 -110 21 -110 16 0 20 6 19 28 -3 42 -1 49 14 55
10 4 24 -9 41 -39 17 -29 33 -44 46 -44 11 0 19 3 17 8 -2 4 -12 23 -22 43
-18 36 -18 37 2 59 23 25 20 76 -6 97 -10 7 -43 13 -74 13 l-58 0 0 -110z
m109 62 c14 -27 -5 -52 -39 -52 -28 0 -30 3 -30 35 0 32 2 35 30 35 18 0 33
-7 39 -18z"/>
<path d="M573 315 c0 -38 2 -53 4 -32 2 20 2 52 0 70 -2 17 -4 1 -4 -38z"/>
<path d="M889 360 c-5 -54 7 -110 24 -110 8 0 8 3 -1 12 -14 14 -16 82 -3 73
5 -3 13 0 17 6 4 7 3 9 -4 5 -6 -3 -15 2 -21 11 -8 14 -11 15 -12 3z"/>
<path d="M488 339 c-21 -12 -24 -59 -6 -77 14 -14 47 -15 67 -3 8 5 -1 8 -25
7 -35 -1 -39 2 -42 25 -4 37 21 55 56 40 25 -10 26 -10 8 4 -23 17 -34 18 -58
4z"/>
<path d="M590 340 c0 -5 5 -10 11 -10 5 0 7 5 4 10 -3 6 -8 10 -11 10 -2 0 -4
-4 -4 -10z"/>
<path d="M622 296 c1 -49 2 -49 5 -9 4 44 25 62 49 42 11 -9 18 -8 29 1 22 18
43 -3 48 -48 l4 -37 1 36 c2 45 -18 75 -44 64 -10 -4 -23 -7 -29 -5 -5 1 -22
4 -37 5 -27 2 -28 1 -26 -49z"/>
<path d="M786 334 c-20 -19 -21 -58 -2 -73 7 -6 30 -10 50 -9 l36 3 0 50 c0
28 -4 45 -8 38 -5 -8 -13 -9 -22 -3 -22 14 -36 12 -54 -6z m58 -10 c32 -31 6
-71 -39 -60 -30 8 -35 49 -7 65 23 14 28 14 46 -5z"/>
<path d="M946 334 c-32 -31 -8 -85 37 -83 20 1 21 2 2 6 -11 3 -25 9 -31 14
-13 10 -12 45 2 59 15 15 53 0 56 -24 2 -14 6 -17 11 -9 9 14 -26 53 -47 53
-8 0 -22 -7 -30 -16z"/>
<path d="M680 290 c0 -11 2 -20 4 -20 2 0 6 9 9 20 3 11 1 20 -4 20 -5 0 -9
-9 -9 -20z"/>
<path d="M965 299 c-3 -4 2 -6 10 -5 21 3 28 13 10 13 -9 0 -18 -4 -20 -8z"/>
<path d="M599 298 c-5 -19 -8 -50 -4 -46 7 7 15 48 9 48 -2 0 -4 -1 -5 -2z"/>
</g>
</svg>
